HIERARCHY
ROOT newVegas:Hips
{
	OFFSET 0.000000 96.479958 0.000000
	CHANNELS 6 Xposition Yposition Zposition Xrotation Yrotation Zrotation
	JOINT newVegas:Pelvis
	{
		OFFSET 0.000000 0.000000 0.000000
		CHANNELS 3 Xrotation Yrotation Zrotation
		JOINT newVegas:LeftUpLeg
		{
			OFFSET 18.735201 -5.666702 -4.541200
			CHANNELS 3 Xrotation Yrotation Zrotation
			JOINT newVegas:LeftLeg
			{
				OFFSET -0.021200 -31.938179 0.493100
				CHANNELS 3 Xrotation Yrotation Zrotation
				JOINT newVegas:LeftFoot
				{
					OFFSET 0.021200 -31.938179 -4.336299
					CHANNELS 3 Xrotation Yrotation Zrotation
					JOINT newVegas:LeftToeBase
					{
						OFFSET 0.943001 -26.722000 15.023500
						CHANNELS 3 Xrotation Yrotation Zrotation
						End Site
						{
							OFFSET 0.000000 30.670183 0.000000
						}
					}
				}
				JOINT newVegas:Left_PantLeg
				{
					OFFSET 0.663870 -9.044666 -1.108900
					CHANNELS 3 Xrotation Yrotation Zrotation
					End Site
					{
						OFFSET 1.415995 20.635357 0.000000
					}
				}
			}
		}
		JOINT newVegas:RightUpLeg
		{
			OFFSET -18.735201 -5.666702 -4.541200
			CHANNELS 3 Xrotation Yrotation Zrotation
			JOINT newVegas:RightLeg
			{
				OFFSET 0.018946 -31.938133 0.493100
				CHANNELS 3 Xrotation Yrotation Zrotation
				JOINT newVegas:RightFoot
				{
					OFFSET -0.018946 -31.938126 -4.336299
					CHANNELS 3 Xrotation Yrotation Zrotation
					JOINT newVegas:RightToeBase
					{
						OFFSET -0.943001 -26.722004 15.023500
						CHANNELS 3 Xrotation Yrotation Zrotation
						End Site
						{
							OFFSET 0.000000 30.670187 0.000000
						}
					}
				}
				JOINT newVegas:Right_PantLeg
				{
					OFFSET -0.661674 -9.044716 -1.108900
					CHANNELS 3 Xrotation Yrotation Zrotation
					End Site
					{
						OFFSET -1.415958 20.635269 0.000000
					}
				}
			}
		}
	}
	JOINT newVegas:Spine
	{
		OFFSET 0.000000 10.199997 -0.299500
		CHANNELS 3 Xrotation Yrotation Zrotation
		JOINT newVegas:Spine1
		{
			OFFSET 0.000000 11.900002 -1.516600
			CHANNELS 3 Xrotation Yrotation Zrotation
			JOINT newVegas:Spine2
			{
				OFFSET 0.000000 13.600006 -2.842500
				CHANNELS 3 Xrotation Yrotation Zrotation
				JOINT newVegas:Neck
				{
					OFFSET 0.000000 9.624100 -2.890100
					CHANNELS 3 Xrotation Yrotation Zrotation
					JOINT newVegas:Head
					{
						OFFSET 0.000000 14.068802 -1.351900
						CHANNELS 3 Xrotation Yrotation Zrotation
						JOINT newVegas:Hair_Back
						{
							OFFSET 0.000000 3.231903 -17.524799
							CHANNELS 3 Xrotation Yrotation Zrotation
							End Site
							{
								OFFSET 0.000000 19.849884 0.000000
							}
						}
						JOINT newVegas:Hair_Front
						{
							OFFSET 0.000000 31.260406 4.573800
							CHANNELS 3 Xrotation Yrotation Zrotation
							JOINT newVegas:Hair_Front1
							{
								OFFSET 0.000000 2.284103 11.993300
								CHANNELS 3 Xrotation Yrotation Zrotation
								JOINT newVegas:Hair_Front2
								{
									OFFSET 0.000000 2.284103 11.993300
									CHANNELS 3 Xrotation Yrotation Zrotation
									End Site
									{
										OFFSET 0.000000 12.208862 0.000000
									}
								}
							}
						}
						JOINT newVegas:Jowel
						{
							OFFSET 0.000000 -7.458206 6.864100
							CHANNELS 3 Xrotation Yrotation Zrotation
							End Site
							{
								OFFSET 0.000000 19.849884 0.000000
							}
						}
					}
				}
				JOINT newVegas:LeftShoulder
				{
					OFFSET 15.263000 10.923401 -0.547700
					CHANNELS 3 Xrotation Yrotation Zrotation
					JOINT newVegas:LeftArm
					{
						OFFSET 25.438599 -2.830597 -13.032500
						CHANNELS 3 Xrotation Yrotation Zrotation
						JOINT newVegas:LeftForeArm
						{
							OFFSET 29.960503 0.000000 0.000000
							CHANNELS 3 Xrotation Yrotation Zrotation
							JOINT newVegas:LeftHand
							{
								OFFSET 27.849251 0.000000 0.000000
								CHANNELS 3 Xrotation Yrotation Zrotation
								JOINT newVegas:LeftHandThumb1
								{
									OFFSET 4.487587 -3.305161 6.305391
									CHANNELS 3 Xrotation Yrotation Zrotation
									JOINT newVegas:LeftHandThumb2
									{
										OFFSET 5.480453 -3.164139 3.164143
										CHANNELS 3 Xrotation Yrotation Zrotation
										JOINT newVegas:LeftHandThumb3
										{
											OFFSET 5.159721 -2.978973 2.978967
											CHANNELS 3 Xrotation Yrotation Zrotation
											End Site
											{
												OFFSET 2.494507 5.926697 1.738678
											}
										}
									}
								}
								JOINT newVegas:LeftHandIndex1
								{
									OFFSET 18.578728 -0.527832 5.208049
									CHANNELS 3 Xrotation Yrotation Zrotation
									JOINT newVegas:LeftHandIndex2
									{
										OFFSET 3.192009 0.000000 0.000000
										CHANNELS 3 Xrotation Yrotation Zrotation
										JOINT newVegas:LeftHandIndex3
										{
											OFFSET 3.835129 0.000000 0.000000
											CHANNELS 3 Xrotation Yrotation Zrotation
											End Site
											{
												OFFSET -0.034599 3.816971 0.371180
											}
										}
									}
								}
								JOINT newVegas:LeftHandMiddle1
								{
									OFFSET 18.476105 0.000000 0.000000
									CHANNELS 3 Xrotation Yrotation Zrotation
									JOINT newVegas:LeftHandMiddle2
									{
										OFFSET 3.324875 0.000000 0.000000
										CHANNELS 3 Xrotation Yrotation Zrotation
										JOINT newVegas:LeftHandMiddle3
										{
											OFFSET 4.596550 0.000000 0.000000
											CHANNELS 3 Xrotation Yrotation Zrotation
											End Site
											{
												OFFSET 0.057701 4.578827 0.399218
											}
										}
									}
								}
								JOINT newVegas:LeftHandRing1
								{
									OFFSET 17.732719 0.121887 -4.201567
									CHANNELS 3 Xrotation Yrotation Zrotation
									JOINT newVegas:LeftHandRing2
									{
										OFFSET 2.733170 0.000000 0.000000
										CHANNELS 3 Xrotation Yrotation Zrotation
										JOINT newVegas:LeftHandRing3
										{
											OFFSET 3.178268 0.000000 0.000000
											CHANNELS 3 Xrotation Yrotation Zrotation
											End Site
											{
												OFFSET 0.119102 3.170624 0.185394
											}
										}
									}
								}
								JOINT newVegas:LeftHandPinky1
								{
									OFFSET 15.989624 -0.606689 -7.535461
									CHANNELS 3 Xrotation Yrotation Zrotation
									JOINT newVegas:LeftHandPinky2
									{
										OFFSET 2.538986 0.000000 0.000000
										CHANNELS 3 Xrotation Yrotation Zrotation
										JOINT newVegas:LeftHandPinky3
										{
											OFFSET 2.593102 0.000000 0.000000
											CHANNELS 3 Xrotation Yrotation Zrotation
											End Site
											{
												OFFSET -0.150902 2.584198 0.152708
											}
										}
									}
								}
							}
							JOINT newVegas:Left_Sleeve
							{
								OFFSET 0.267448 -0.649796 0.577675
								CHANNELS 3 Xrotation Yrotation Zrotation
								End Site
								{
									OFFSET 0.000000 15.991241 0.000000
								}
							}
							JOINT newVegas:Left_CapeC
							{
								OFFSET 15.715958 -8.608795 -6.935905
								CHANNELS 3 Xrotation Yrotation Zrotation
								JOINT newVegas:Left_CapeC1
								{
									OFFSET 0.000000 -8.688499 0.000000
									CHANNELS 3 Xrotation Yrotation Zrotation
									End Site
									{
										OFFSET 0.000000 8.688499 0.000000
									}
								}
							}
						}
						JOINT newVegas:Left_CapeB
						{
							OFFSET 26.118385 -8.608795 -7.079235
							CHANNELS 3 Xrotation Yrotation Zrotation
							JOINT newVegas:Left_CapeB1
							{
								OFFSET 0.000000 -8.688499 0.000000
								CHANNELS 3 Xrotation Yrotation Zrotation
								End Site
								{
									OFFSET 0.000000 8.688499 0.000000
								}
							}
						}
						JOINT newVegas:Left_CapeA
						{
							OFFSET 5.115639 -8.608795 -10.395809
							CHANNELS 3 Xrotation Yrotation Zrotation
							JOINT newVegas:Left_CapeA1
							{
								OFFSET 0.000000 -8.688499 0.000000
								CHANNELS 3 Xrotation Yrotation Zrotation
								End Site
								{
									OFFSET 0.000000 8.688499 0.000000
								}
							}
						}
					}
				}
				JOINT newVegas:RightShoulder
				{
					OFFSET -15.263000 10.923401 -0.547700
					CHANNELS 3 Xrotation Yrotation Zrotation
					JOINT newVegas:RightArm
					{
						OFFSET -25.438599 -2.830597 -13.032500
						CHANNELS 3 Xrotation Yrotation Zrotation
						JOINT newVegas:RightForeArm
						{
							OFFSET -29.960503 0.000000 0.000000
							CHANNELS 3 Xrotation Yrotation Zrotation
							JOINT newVegas:RightHand
							{
								OFFSET -27.849251 0.000000 0.000000
								CHANNELS 3 Xrotation Yrotation Zrotation
								JOINT newVegas:RightHandThumb1
								{
									OFFSET -4.487587 -3.305161 6.305391
									CHANNELS 3 Xrotation Yrotation Zrotation
									JOINT newVegas:RightHandThumb2
									{
										OFFSET -5.480453 -3.164139 3.164143
										CHANNELS 3 Xrotation Yrotation Zrotation
										JOINT newVegas:RightHandThumb3
										{
											OFFSET -5.159721 -2.978973 2.978967
											CHANNELS 3 Xrotation Yrotation Zrotation
											End Site
											{
												OFFSET -2.494507 5.926697 1.738678
											}
										}
									}
								}
								JOINT newVegas:RightHandIndex1
								{
									OFFSET -18.578728 -0.527832 5.208049
									CHANNELS 3 Xrotation Yrotation Zrotation
									JOINT newVegas:RightHandIndex2
									{
										OFFSET -3.192009 0.000000 0.000000
										CHANNELS 3 Xrotation Yrotation Zrotation
										JOINT newVegas:RightHandIndex3
										{
											OFFSET -3.835129 0.000000 0.000000
											CHANNELS 3 Xrotation Yrotation Zrotation
											End Site
											{
												OFFSET 0.034599 3.816971 0.371180
											}
										}
									}
								}
								JOINT newVegas:RightHandMiddle1
								{
									OFFSET -18.476105 0.000000 0.000000
									CHANNELS 3 Xrotation Yrotation Zrotation
									JOINT newVegas:RightHandMiddle2
									{
										OFFSET -3.324875 0.000000 0.000000
										CHANNELS 3 Xrotation Yrotation Zrotation
										JOINT newVegas:RightHandMiddle3
										{
											OFFSET -4.596550 0.000000 0.000000
											CHANNELS 3 Xrotation Yrotation Zrotation
											End Site
											{
												OFFSET -0.057701 4.578827 0.399218
											}
										}
									}
								}
								JOINT newVegas:RightHandRing1
								{
									OFFSET -17.732719 0.121887 -4.201567
									CHANNELS 3 Xrotation Yrotation Zrotation
									JOINT newVegas:RightHandRing2
									{
										OFFSET -2.733170 0.000000 0.000000
										CHANNELS 3 Xrotation Yrotation Zrotation
										JOINT newVegas:RightHandRing3
										{
											OFFSET -3.178268 0.000000 0.000000
											CHANNELS 3 Xrotation Yrotation Zrotation
											End Site
											{
												OFFSET -0.119102 3.170624 0.185394
											}
										}
									}
								}
								JOINT newVegas:RightHandPinky1
								{
									OFFSET -15.989624 -0.606689 -7.535461
									CHANNELS 3 Xrotation Yrotation Zrotation
									JOINT newVegas:RightHandPinky2
									{
										OFFSET -2.538986 0.000000 0.000000
										CHANNELS 3 Xrotation Yrotation Zrotation
										JOINT newVegas:RightHandPinky3
										{
											OFFSET -2.593102 0.000000 0.000000
											CHANNELS 3 Xrotation Yrotation Zrotation
											End Site
											{
												OFFSET 0.150902 2.584198 0.152708
											}
										}
									}
								}
							}
							JOINT newVegas:Right_CapeC
							{
								OFFSET -15.715958 -8.608795 -6.935905
								CHANNELS 3 Xrotation Yrotation Zrotation
								JOINT newVegas:Right_CapeC1
								{
									OFFSET 0.000000 -8.688499 0.000000
									CHANNELS 3 Xrotation Yrotation Zrotation
									End Site
									{
										OFFSET 0.000000 8.688499 0.000000
									}
								}
							}
							JOINT newVegas:Right_Sleeve
							{
								OFFSET -0.267448 -0.649994 0.577675
								CHANNELS 3 Xrotation Yrotation Zrotation
								End Site
								{
									OFFSET 0.000000 15.991302 0.000000
								}
							}
						}
						JOINT newVegas:Right_CapeA
						{
							OFFSET -5.115540 -8.608795 -10.395824
							CHANNELS 3 Xrotation Yrotation Zrotation
							JOINT newVegas:Right_CapeA1
							{
								OFFSET 0.000000 -8.688499 0.000000
								CHANNELS 3 Xrotation Yrotation Zrotation
								End Site
								{
									OFFSET 0.000000 8.688499 0.000000
								}
							}
						}
						JOINT newVegas:Right_CapeB
						{
							OFFSET -26.118187 -8.608795 -7.079266
							CHANNELS 3 Xrotation Yrotation Zrotation
							JOINT newVegas:Right_CapeB1
							{
								OFFSET 0.000000 -8.688499 0.000000
								CHANNELS 3 Xrotation Yrotation Zrotation
								End Site
								{
									OFFSET 0.000000 8.688499 0.000000
								}
							}
						}
					}
				}
				JOINT newVegas:Left_Collar
				{
					OFFSET 18.625099 8.655502 8.828100
					CHANNELS 3 Xrotation Yrotation Zrotation
					JOINT newVegas:Left_Collar1
					{
						OFFSET 14.783401 10.540405 -1.259500
						CHANNELS 3 Xrotation Yrotation Zrotation
						End Site
						{
							OFFSET 0.000000 18.199875 0.000000
						}
					}
				}
				JOINT newVegas:Collar_Back
				{
					OFFSET 0.000000 15.630707 -20.132601
					CHANNELS 3 Xrotation Yrotation Zrotation
					End Site
					{
						OFFSET 0.000000 22.523010 0.000000
					}
				}
				JOINT newVegas:Left_Peck
				{
					OFFSET 17.239599 -5.132599 25.482599
					CHANNELS 3 Xrotation Yrotation Zrotation
					End Site
					{
						OFFSET 0.000000 22.523010 0.000000
					}
				}
				JOINT newVegas:Right_Peck
				{
					OFFSET -17.239599 -5.132202 25.482599
					CHANNELS 3 Xrotation Yrotation Zrotation
					End Site
					{
						OFFSET 0.000000 22.523010 0.000000
					}
				}
				JOINT newVegas:Right_Collar
				{
					OFFSET -18.625099 8.655792 8.828100
					CHANNELS 3 Xrotation Yrotation Zrotation
					JOINT newVegas:Right_Collar1
					{
						OFFSET -14.783401 10.539993 -1.259500
						CHANNELS 3 Xrotation Yrotation Zrotation
						End Site
						{
							OFFSET 0.000000 18.199631 0.000000
						}
					}
				}
			}
		}
		JOINT newVegas:Belly
		{
			OFFSET 0.000000 -6.540398 9.014299
			CHANNELS 3 Xrotation Yrotation Zrotation
			End Site
			{
				OFFSET 0.000000 11.566666 0.000000
			}
		}
	}
	JOINT newVegas:ElvisFacialAnim_Joint
	{
		OFFSET 1.000000 -95.330101 -8.825800
		CHANNELS 3 Xrotation Yrotation Zrotation
		End Site
		{
			OFFSET 0.000000 35.315800 0.000000
		}
	}
}
MOTION
Frames: 4
Frame Time: 0.033333
0.588723 92.119514 3.872094 -7.271635 1.757232 0.559739 0.000000 0.000000 -0.000000 -18.673435 -1.085980 8.152951 50.886958 2.451121 -0.434128 -3.729180 1.007444 -13.543421 -0.000001 0.000000 0.000000 -0.000001 0.000000 0.000000 -10.452638 -4.010696 -2.639253 37.117215 -1.670375 -2.561715 -19.254284 -3.129570 3.940580 0.000000 -0.000000 0.000000 0.000001 0.000000 -0.000001 13.994239 4.744464 0.104326 7.912808 1.559702 -0.560586 7.747271 1.735559 -0.421508 -0.379125 -0.368999 0.128828 -0.379109 -0.368999 0.128827 0.000003 -0.000000 -0.000000 -0.379200 -0.369010 0.128829 -0.379064 -0.368987 0.128826 -0.000001 0.000001 -0.000000 0.000003 -0.000000 0.000000 0.517711 -6.933811 -11.997349 15.823651 -10.681422 -60.561730 0.000007 -39.638060 -0.000004 6.098708 -6.349582 6.843363 0.951841 1.164308 0.226697 15.865461 3.962770 16.425195 0.000002 0.000001 -0.000003 0.070252 4.077646 -38.313635 1.100807 3.420044 -35.674303 0.000001 0.000001 0.000001 1.647914 6.399116 -37.897007 1.801593 4.226870 -46.154337 -0.000000 -0.000001 -0.000002 3.692722 8.215278 -47.989985 2.698724 4.931746 -57.355100 0.000000 0.000001 0.000000 1.947632 7.020284 -39.470099 2.089818 4.485179 -49.947722 -0.000000 -0.000003 -0.000001 0.000002 0.000000 -0.000000 0.000002 0.000000 -0.000000 0.000001 0.000000 0.000000 0.000003 -0.000002 -0.000000 0.000003 -0.000003 -0.000001 0.000003 -0.000002 -0.000000 0.000003 -0.000001 0.000000 -1.114561 7.436999 19.677449 -9.644283 4.375113 56.120400 -0.000007 39.217607 0.000023 8.797195 3.077407 -6.050738 18.520893 -7.190328 -1.277233 3.296128 -8.601277 -9.261731 0.000003 -0.000005 -0.000001 -5.868748 1.270921 48.078620 1.435021 -3.364354 46.190278 0.000001 0.000003 0.000001 -2.880888 -0.639042 41.052275 1.916523 -3.766817 53.920744 0.000000 -0.000003 0.000000 -1.730696 -1.803974 39.630595 1.952098 -3.792413 54.460278 -0.000000 -0.000001 -0.000001 -1.852903 -3.504685 46.831038 0.517538 -2.135527 27.242198 -0.000002 0.000003 0.000001 -0.000001 -0.000001 0.000001 -0.000002 -0.000000 0.000000 -0.000001 -0.000002 0.000001 -0.000000 0.000000 0.000000 -0.000000 0.000000 0.000001 -0.000000 0.000000 0.000000 -0.000000 -0.000000 0.000001 -0.000001 -0.000001 -0.000000 -0.000001 -0.000001 -0.000000 -0.000001 -0.000001 -0.000000 -0.000001 -0.000001 -0.000000 -0.000001 -0.000001 -0.000000 -0.000001 -0.000001 -0.000000 -0.000001 -0.000001 -0.000000 0.000000 -0.000000 -0.000000 0.000000 0.000000 -0.000000 
0.594118 91.800224 0.945007 -8.025972 3.095374 0.729377 0.000001 -0.000000 -0.000000 -12.219211 -1.289759 9.028241 51.179676 -0.044329 1.415385 -2.189020 1.622928 -18.747846 -0.000001 0.000000 -0.000001 0.000001 -0.000001 -0.000000 -13.137629 -4.143827 -2.999572 39.358453 -2.540604 -2.184114 -18.044115 -3.149693 3.891377 0.000000 0.000000 -0.000000 0.000001 0.000000 -0.000000 13.278564 3.590771 0.654504 7.862665 1.270511 -0.477576 7.695689 1.445003 -0.336360 -0.352805 -0.296365 0.085610 -0.352791 -0.296361 0.085610 0.000000 0.000000 -0.000000 -0.352804 -0.296362 0.085608 -0.352731 -0.296361 0.085610 -0.000002 0.000000 -0.000000 0.000000 0.000000 -0.000000 0.508251 -6.921053 -12.343534 13.169380 -11.871110 -58.198164 0.000009 -38.980398 0.000019 3.727437 -9.277916 6.242560 4.653277 2.742551 1.109591 13.922907 6.235996 14.630185 0.000004 -0.000001 -0.000001 0.890840 4.517397 -38.756580 1.162365 3.504080 -36.693900 -0.000001 0.000000 0.000001 1.961602 6.764004 -39.170510 1.878867 4.299551 -47.193800 0.000001 -0.000000 -0.000001 4.292160 8.610521 -50.074839 2.838424 5.018167 -58.965932 -0.000001 -0.000002 0.000001 3.248854 8.277272 -48.741589 2.309195 4.660205 -52.698984 -0.000000 -0.000003 0.000000 0.000000 -0.000000 0.000001 0.000000 -0.000000 0.000001 -0.000001 -0.000000 0.000001 0.000001 0.000004 0.000001 0.000001 0.000003 -0.000001 0.000001 0.000004 0.000001 0.000001 0.000003 0.000001 -0.832120 6.566193 18.707543 -2.577777 -0.756677 58.321449 -0.000010 44.030169 0.000002 6.649861 3.176793 -3.737630 18.001394 -5.356675 -0.820876 3.351171 -9.035357 -9.622076 -0.000004 0.000001 0.000001 -5.454441 2.536052 41.832381 1.089791 -2.995767 39.972982 -0.000004 0.000001 0.000001 -2.806036 -0.056639 37.193109 1.624891 -3.536397 49.344275 0.000001 0.000001 0.000002 -1.694997 -1.643559 37.987719 1.820337 -3.694950 52.442623 -0.000001 0.000002 0.000000 -1.778851 -3.534126 45.047973 0.454688 -2.008865 25.504345 0.000001 -0.000000 -0.000000 -0.000000 0.000002 -0.000001 -0.000000 0.000001 -0.000000 -0.000000 0.000001 -0.000001 0.000000 -0.000001 -0.000000 0.000000 -0.000001 0.000000 0.000000 -0.000001 -0.000000 0.000000 -0.000001 0.000000 -0.000000 0.000000 0.000000 -0.000000 0.000000 0.000000 -0.000000 0.000000 0.000000 -0.000000 0.000000 0.000000 -0.000000 0.000000 0.000000 -0.000000 0.000000 0.000000 -0.000000 0.000000 0.000000 -0.000000 0.000000 -0.000000 0.000001 -0.000000 -0.000000 
0.672085 91.117279 -2.135686 -8.752815 4.461904 0.452873 0.000000 -0.000000 -0.000000 -5.334212 -0.523432 10.258485 51.565042 -1.756030 3.178985 -4.144382 2.248282 -21.456655 0.000001 0.000000 -0.000000 0.000002 0.000000 0.000001 -16.178386 -4.306239 -3.167260 41.963033 -3.375305 -1.628711 -16.821398 -3.145296 3.845666 -0.000000 0.000000 0.000000 -0.000002 0.000001 -0.000000 12.551113 1.887491 1.741871 7.848236 0.859028 -0.286107 7.678328 1.035506 -0.143043 -0.322487 -0.196450 0.027841 -0.322474 -0.196448 0.027839 -0.000001 0.000000 -0.000000 -0.322482 -0.196472 0.027844 -0.322473 -0.196405 0.027832 -0.000000 0.000000 -0.000000 -0.000001 0.000000 -0.000000 0.493984 -6.928943 -12.843552 10.155336 -12.441820 -56.446862 0.000006 -39.604589 -0.000007 2.774200 -11.776389 5.353573 8.648654 4.550806 1.799942 11.944849 7.893214 12.740098 0.000005 0.000002 -0.000001 1.754203 5.028552 -40.036878 1.280858 3.657387 -38.590828 0.000004 0.000002 -0.000001 2.476426 7.264246 -42.310983 2.111432 4.503208 -50.223542 -0.000001 -0.000000 0.000001 4.984336 8.955397 -53.086795 3.091848 5.161602 -61.821900 -0.000000 0.000001 0.000001 5.158189 9.515487 -58.770793 2.573934 4.849823 -55.891571 0.000001 -0.000003 0.000000 0.000001 -0.000001 -0.000000 0.000001 -0.000001 -0.000000 0.000000 -0.000001 0.000000 0.000002 0.000001 0.000000 0.000002 0.000000 -0.000001 0.000002 0.000001 0.000000 0.000002 -0.000000 0.000000 -0.566794 5.743384 17.823577 6.052210 -3.495942 59.835749 0.000010 49.617448 -0.000043 3.107177 3.209731 -2.920917 17.398995 -3.305597 -0.296218 3.506863 -10.024605 -9.912715 0.000001 0.000001 0.000001 -5.089005 3.651186 36.706659 0.796736 -2.607000 33.982319 -0.000001 -0.000001 0.000001 -2.817456 0.411332 34.846269 1.447660 -3.376410 46.405279 -0.000004 -0.000000 0.000002 -1.752013 -1.368274 36.463873 1.736183 -3.628842 51.125175 0.000002 -0.000001 -0.000001 -1.827626 -3.398354 43.537415 0.410104 -1.912684 24.201449 -0.000002 -0.000000 0.000001 -0.000001 0.000001 -0.000000 -0.000001 -0.000000 0.000002 -0.000001 0.000001 -0.000000 -0.000000 0.000000 -0.000002 -0.000000 0.000001 -0.000001 -0.000000 0.000000 -0.000002 -0.000000 0.000001 -0.000001 -0.000000 -0.000000 -0.000000 -0.000000 -0.000000 -0.000000 -0.000000 -0.000000 -0.000000 -0.000000 -0.000000 -0.000000 -0.000000 -0.000000 -0.000000 -0.000000 -0.000000 -0.000000 -0.000000 -0.000000 -0.000000 0.000000 0.000000 0.000000 0.000000 -0.000000 -0.000000 
0.828189 90.241928 -5.314863 -9.444986 5.747874 -0.050244 -0.000000 0.000000 0.000000 1.605790 0.687817 11.680211 50.101463 -5.007965 5.495744 -5.971909 3.119513 -24.594055 0.000001 0.000002 -0.000000 -0.000002 -0.000001 0.000000 -19.364285 -4.684738 -3.441588 44.432570 -3.819739 -0.983836 -15.345405 -3.122985 3.762725 -0.000000 0.000000 0.000000 0.000001 0.000000 -0.000000 11.910453 -0.150068 2.788100 7.845201 0.384456 -0.110470 7.672276 0.560668 0.033113 -0.330321 -0.062509 -0.007979 -0.330313 -0.062506 -0.007979 0.000001 0.000000 -0.000000 -0.330325 -0.062508 -0.007980 -0.330316 -0.062513 -0.007978 0.000000 -0.000000 0.000000 0.000001 0.000000 0.000000 0.479005 -7.065818 -13.234879 6.965956 -11.631020 -55.116126 0.000004 -41.596282 -0.000002 3.770910 -13.251345 3.875421 12.576630 6.327806 2.166160 10.035178 9.276336 10.924147 0.000002 0.000001 -0.000003 2.656048 5.486175 -42.891464 1.489978 3.904518 -41.761348 0.000004 0.000001 0.000002 3.197677 7.801603 -47.265971 2.496901 4.796948 -54.975674 -0.000001 -0.000003 -0.000000 5.711875 9.203905 -56.680670 3.435608 5.330775 -65.580232 -0.000002 0.000001 0.000002 7.312412 10.339493 -67.980115 2.792447 4.990319 -58.438982 0.000001 -0.000003 0.000003 0.000000 0.000001 -0.000001 0.000000 0.000001 -0.000001 -0.000000 0.000001 -0.000001 -0.000000 0.000001 0.000000 0.000000 0.000001 0.000000 -0.000000 0.000001 0.000000 0.000000 -0.000000 0.000001 -0.329533 4.836713 17.085785 15.271516 -2.982636 60.315440 0.000003 54.081141 0.000013 -2.247472 4.068574 -3.952154 16.746977 -1.171710 0.267297 3.692128 -11.262749 -10.194755 0.000002 -0.000001 0.000001 -4.861643 4.411737 33.675828 0.647615 -2.371062 30.549896 -0.000002 0.000001 0.000003 -2.807882 0.739610 33.197325 1.368130 -3.298999 45.039394 -0.000003 -0.000001 -0.000002 -1.834976 -1.012090 34.769672 1.651543 -3.559059 49.774812 0.000002 0.000001 -0.000001 -1.843646 -3.273015 42.281726 0.361077 -1.799676 22.687783 0.000001 0.000001 0.000001 0.000000 -0.000000 -0.000000 -0.000001 0.000001 -0.000000 0.000000 -0.000001 -0.000000 -0.000001 0.000001 -0.000000 -0.000001 0.000002 0.000001 -0.000001 0.000001 -0.000000 -0.000001 0.000002 0.000001 -0.000000 0.000000 0.000000 -0.000000 0.000000 0.000000 -0.000000 0.000000 0.000000 -0.000000 0.000000 0.000000 -0.000000 0.000000 0.000000 -0.000000 0.000000 0.000000 -0.000000 0.000000 0.000000 -0.000000 0.000000 -0.000000 -0.000000 0.000000 0.000000 
